REM DIRINDEX 1\2,1\3,1\4
REM DIRNAME cjc105,folder01,folder02,folder03
TITLE ""
FILE "DISC1Track02.mp3" MP3
  TRACK 01 AUDIO
    TITLE "0:"
    INDEX 01 00:00:00
  TRACK 02 AUDIO
    TITLE "4:cjc105_0078"
    INDEX 01 00:00:17
  TRACK 03 AUDIO
    TITLE "0:"
    INDEX 01 00:07:35
  TRACK 04 AUDIO
    TITLE "2:cjc105_0079"
    INDEX 01 00:08:03
  TRACK 05 AUDIO
    TITLE "2:cjc105_0080"
    INDEX 01 00:11:39
  TRACK 06 AUDIO
    TITLE "2:cjc105_0081"
    INDEX 01 00:14:41
  TRACK 07 AUDIO
    TITLE "2:cjc105_0082"
    INDEX 01 00:17:53
  TRACK 08 AUDIO
    TITLE "2:cjc105_0083"
    INDEX 01 00:21:17
  TRACK 09 AUDIO
    TITLE "2:cjc105_0084"
    INDEX 01 00:24:43
  TRACK 10 AUDIO
    TITLE "2:cjc105_0085"
    INDEX 01 00:27:57
  TRACK 11 AUDIO
    TITLE "2:cjc105_0086"
    INDEX 01 00:30:69
  TRACK 12 AUDIO
    TITLE "2:cjc105_0087"
    INDEX 01 00:34:20
  TRACK 13 AUDIO
    TITLE "2:cjc105_0088"
    INDEX 01 00:37:59
  TRACK 14 AUDIO
    TITLE "2:cjc105_0089"
    INDEX 01 00:40:50
  TRACK 15 AUDIO
    TITLE "2:cjc105_0090"
    INDEX 01 00:43:58
  TRACK 16 AUDIO
    TITLE "2:cjc105_0091"
    INDEX 01 00:46:64
  TRACK 17 AUDIO
    TITLE "2:cjc105_0092"
    INDEX 01 00:50:09
  TRACK 18 AUDIO
    TITLE "2:cjc105_0093"
    INDEX 01 00:53:51
  TRACK 19 AUDIO
    TITLE "2:cjc105_0094"
    INDEX 01 00:56:72
  TRACK 20 AUDIO
    TITLE "2:cjc105_0095"
    INDEX 01 00:59:53
  TRACK 21 AUDIO
    TITLE "2:cjc105_0096"
    INDEX 01 01:03:02
  TRACK 22 AUDIO
    TITLE "2:cjc105_0097"
    INDEX 01 01:06:10
  TRACK 23 AUDIO
    TITLE "2:cjc105_0098"
    INDEX 01 01:09:09
  TRACK 24 AUDIO
    TITLE "2:cjc105_0099"
    INDEX 01 01:12:26
  TRACK 25 AUDIO
    TITLE "2:cjc105_0100"
    INDEX 01 01:15:35
  TRACK 26 AUDIO
    TITLE "2:cjc105_0101"
    INDEX 01 01:19:01
  TRACK 27 AUDIO
    TITLE "2:cjc105_0102"
    INDEX 01 01:21:59
  TRACK 28 AUDIO
    TITLE "2:cjc105_0103"
    INDEX 01 01:24:69
  TRACK 29 AUDIO
    TITLE "2:cjc105_0104"
    INDEX 01 01:27:69
  TRACK 30 AUDIO
    TITLE "2:cjc105_0105"
    INDEX 01 01:31:38
  TRACK 31 AUDIO
    TITLE "2:cjc105_0106"
    INDEX 01 01:34:52
  TRACK 32 AUDIO
    TITLE "2:cjc105_0107"
    INDEX 01 01:37:66
  TRACK 33 AUDIO
    TITLE "2:cjc105_0108"
    INDEX 01 01:41:09
  TRACK 34 AUDIO
    TITLE "2:cjc105_0109"
    INDEX 01 01:44:05
  TRACK 35 AUDIO
    TITLE "2:cjc105_0110"
    INDEX 01 01:47:39
  TRACK 36 AUDIO
    TITLE "2:cjc105_0111"
    INDEX 01 01:50:54
  TRACK 37 AUDIO
    TITLE "2:cjc105_0112"
    INDEX 01 01:53:74
  TRACK 38 AUDIO
    TITLE "2:cjc105_0113"
    INDEX 01 01:56:73
  TRACK 39 AUDIO
    TITLE "2:cjc105_0114"
    INDEX 01 01:59:73
  TRACK 40 AUDIO
    TITLE "2:cjc105_0115"
    INDEX 01 02:03:08
  TRACK 41 AUDIO
    TITLE "2:cjc105_0116"
    INDEX 01 02:06:42
  TRACK 42 AUDIO
    TITLE "2:cjc105_0117"
    INDEX 01 02:09:44
  TRACK 43 AUDIO
    TITLE "2:cjc105_0118"
    INDEX 01 02:12:25
  TRACK 44 AUDIO
    TITLE "2:cjc105_0119"
    INDEX 01 02:15:39
  TRACK 45 AUDIO
    TITLE "2:cjc105_0120"
    INDEX 01 02:18:59
  TRACK 46 AUDIO
    TITLE "2:cjc105_0121"
    INDEX 01 02:22:13
  TRACK 47 AUDIO
    TITLE "2:cjc105_0122"
    INDEX 01 02:25:06
  TRACK 48 AUDIO
    TITLE "2:cjc105_0123"
    INDEX 01 02:27:69
  TRACK 49 AUDIO
    TITLE "2:cjc105_0124"
    INDEX 01 02:31:04
  TRACK 50 AUDIO
    TITLE "2:cjc105_0125"
    INDEX 01 02:34:07
  TRACK 51 AUDIO
    TITLE "2:cjc105_0126"
    INDEX 01 02:37:19
  TRACK 52 AUDIO
    TITLE "2:cjc105_0127"
    INDEX 01 02:40:27
  TRACK 53 AUDIO
    TITLE "2:cjc105_0128"
    INDEX 01 02:43:43
  TRACK 54 AUDIO
    TITLE "2:cjc105_0129"
    INDEX 01 02:46:47
  TRACK 55 AUDIO
    TITLE "2:cjc105_0130"
    INDEX 01 02:49:34
  TRACK 56 AUDIO
    TITLE "2:cjc105_0131"
    INDEX 01 02:52:32
  TRACK 57 AUDIO
    TITLE "2:cjc105_0132"
    INDEX 01 02:56:02
  TRACK 58 AUDIO
    TITLE "2:cjc105_0133"
    INDEX 01 02:58:68
  TRACK 59 AUDIO
    TITLE "2:cjc105_0134"
    INDEX 01 03:02:25
  TRACK 60 AUDIO
    TITLE "2:cjc105_0135"
    INDEX 01 03:05:31
  TRACK 61 AUDIO
    TITLE "2:cjc105_0136"
    INDEX 01 03:08:47
  TRACK 62 AUDIO
    TITLE "2:cjc105_0137"
    INDEX 01 03:11:51
  TRACK 63 AUDIO
    TITLE "2:cjc105_0138"
    INDEX 01 03:15:04
  TRACK 64 AUDIO
    TITLE "2:cjc105_0139"
    INDEX 01 03:17:63
  TRACK 65 AUDIO
    TITLE "2:cjc105_0140"
    INDEX 01 03:21:00
  TRACK 66 AUDIO
    TITLE "2:cjc105_0141"
    INDEX 01 03:24:12
  TRACK 67 AUDIO
    TITLE "2:cjc105_0142"
    INDEX 01 03:27:48
  TRACK 68 AUDIO
    TITLE "2:cjc105_0143"
    INDEX 01 03:30:60
  TRACK 69 AUDIO
    TITLE "2:cjc105_0144"
    INDEX 01 03:34:05
  TRACK 70 AUDIO
    TITLE "2:cjc105_0145"
    INDEX 01 03:37:23
  TRACK 71 AUDIO
    TITLE "2:cjc105_0146"
    INDEX 01 03:40:47
  TRACK 72 AUDIO
    TITLE "2:cjc105_0147"
    INDEX 01 03:43:39
  TRACK 73 AUDIO
    TITLE "2:cjc105_0148"
    INDEX 01 03:46:14
  TRACK 74 AUDIO
    TITLE "2:cjc105_0149"
    INDEX 01 03:49:09
  TRACK 75 AUDIO
    TITLE "0:"
    INDEX 01 03:51:64
